<?xml version="1.0" encoding="UTF-8"?><svg id="Layer_1" xmlns="http://www.w3.org/2000/svg" xmlns:xlink="http://www.w3.org/1999/xlink" viewBox="0 0 926.55 1080.17"><defs><style>.cls-1{fill:none;}.cls-2{fill:url(#Galactic_Light);}.cls-3{fill:url(#Galactic_Light-2);}</style><linearGradient id="Galactic_Light" x1="434.78" y1="0" x2="434.78" y2="1080.04" gradientUnits="userSpaceOnUse"><stop offset="0" stop-color="#ff575c"/><stop offset="1" stop-color="#6c004d"/></linearGradient><linearGradient id="Galactic_Light-2" x1="617.18" y1="427.63" x2="617.18" y2="877.67" xlink:href="#Galactic_Light"/></defs><g><path class="cls-2" d="M867.52,0c-5.88,15.8-17.52,43.48-26.54,71.99-23.58,74.54-14.01,146.98,16.26,217.75,4.76,11.13,8.24,22.8,12.31,34.22-8.26-8.61-17.28-16.62-24.66-25.94-54.71-69.15-123.5-114.27-212.41-125.03-17.19-2.08-34.59-2.38-51.88-3.75-3.17-.25-6.24-1.72-9.35-2.63,2.18-1.95,4.22-4.11,6.58-5.82,8.84-6.42,17.78-12.7,26.69-19.03-10.89-.9-21.79-2.64-32.68-2.56-169.15,1.2-301.27,71.98-386.41,218.2-78.73,135.21-72.87,273.97,7.3,407.53,67.6,112.61,169.77,175.88,299.04,196.26,4.19,.66,8.12,3.01,12.17,4.58-3.1,2.74-5.85,6.04-9.33,8.13-115.18,69.32-239.58,106.45-374.44,106.15-3.99,0-11.61-7.12-11.41-10.56,3.48-59.6,8.51-119.11,11.63-178.72,.56-10.65-3.07-23.98-9.62-32.19C-.74,719.04-29.76,563.82,31.45,396.75c43.39-118.43,126.04-206.78,238.11-266.7,80.37-42.97,166.48-62.46,256.55-56.72,49.81,3.18,99.42,15.24,148.22,27.02,46.21,11.15,82.99-6.68,116.79-32.52,30.12-23.03,56.96-50.35,76.4-67.83Z"/><path class="cls-3" d="M617.23,428.43c55.94,.01,111.88,.01,167.82,.01,95.69,0,153.68,67.88,139.32,163.06-10.13,67.17-57.59,108-125.65,108.09-81.4,.11-162.81-.21-244.2,.88-8.34,.11-19.88,6.5-24.33,13.53-32.13,50.73-62.77,102.39-94.06,153.66-2.29,3.76-5.93,6.7-8.93,10.02-2.24-3.87-5.3-7.48-6.59-11.64-17.25-55.49-33.52-111.29-51.89-166.41-3.88-11.66-14.25-21.74-23.21-31.02-55.98-58.02-48.98-172.22,16.79-215.63,21.57-14.24,50.6-21.99,76.75-23.49,59.22-3.4,118.76-1.07,178.18-1.06Zm180.76,135.93c.33-27.13-15.9-44.77-41.59-45.21-29.49-.51-48.71,16.49-49.1,43.41-.38,26.27,21.12,48.34,47.2,48.44,23.06,.09,43.18-21.49,43.48-46.65Zm-317.37-45.71c-26.22-.59-44.9,18.85-45.58,47.43-.54,22.73,21.67,44.55,45.63,44.82,22.87,.26,45.38-22.28,46.21-46.25,.86-25.06-19.59-45.39-46.25-46Zm180.7,45.05c-.19-28.19-16.98-44.99-44.73-44.75-25.99,.23-46.16,20.66-45.82,46.38,.3,22.57,24.31,45.91,46.93,45.63,24.63-.31,43.79-21.07,43.62-47.26Z"/></g><rect class="cls-1" x="341.54" y="249.04" width="448" height="507"/></svg>