<svg id="Layer_1" data-name="Layer 1" xmlns="http://www.w3.org/2000/svg" xmlns:xlink="http://www.w3.org/1999/xlink" viewBox="0 0 926.54 1080.04"><defs><style>.cls-1{fill:url(#linear-gradient);}.cls-2{fill:url(#linear-gradient-2);}.cls-3{fill:none;}</style><linearGradient id="linear-gradient" x1="511.24" y1="-0.04" x2="511.24" y2="1080" gradientUnits="userSpaceOnUse"><stop offset="0" stop-color="#ffa66c"/><stop offset="1" stop-color="#664248"/></linearGradient><linearGradient id="linear-gradient-2" x1="693.64" y1="427.59" x2="693.64" y2="877.63" xlink:href="#linear-gradient"/></defs><path class="cls-1" d="M944,0c-5.88,15.8-17.52,43.48-26.54,72-23.57,74.54-14,147,16.26,217.75,4.76,11.13,8.25,22.81,12.32,34.23-8.26-8.62-17.29-16.63-24.66-25.94C866.65,228.84,797.86,183.72,709,173c-17.19-2.08-34.59-2.38-51.88-3.75-3.16-.25-6.23-1.73-9.35-2.64,2.19-1.95,4.22-4.1,6.58-5.81,8.84-6.43,17.78-12.71,26.69-19-10.89-.89-21.79-2.64-32.68-2.56-169.15,1.2-301.27,72-386.41,218.2-78.73,135.21-72.87,274,7.31,407.52,67.6,112.61,169.76,175.88,299,196.26,4.19.67,8.12,3,12.17,4.58-3.1,2.74-5.85,6-9.33,8.13C455.9,1043.17,331.5,1080.31,196.64,1080c-4,0-11.61-7.12-11.41-10.56,3.49-59.6,8.52-119.11,11.63-178.72.56-10.66-3.07-24-9.62-32.19C75.73,719,46.71,563.77,107.91,396.71,151.3,278.28,234,189.93,346,130,426.39,87,512.5,67.55,602.58,73.29c49.81,3.18,99.41,15.25,148.21,27,46.21,11.15,83-6.68,116.79-32.52C897.7,44.75,924.54,17.43,944,0Z" transform="translate(-76.46 0.04)"/><path class="cls-2" d="M693.69,428.38q83.91,0,167.82,0c95.69,0,153.68,67.88,139.32,163.06-10.13,67.17-57.59,108-125.65,108.09-81.41.1-162.81-.21-244.2.88-8.35.11-19.88,6.5-24.33,13.52-32.13,50.73-62.78,102.4-94.06,153.66-2.29,3.76-5.93,6.7-8.94,10-2.23-3.87-5.29-7.48-6.58-11.64-17.25-55.49-33.53-111.29-51.89-166.41-3.88-11.65-14.25-21.73-23.21-31-56-58-49-172.22,16.79-215.63,21.57-14.24,50.6-22,76.75-23.49C574.73,426,634.28,428.37,693.69,428.38ZM874.45,564.31c.33-27.12-15.89-44.77-41.58-45.21-29.49-.5-48.71,16.49-49.1,43.42-.39,26.27,21.12,48.34,47.2,48.44C854,611.05,874.15,589.47,874.45,564.31Zm-317.37-45.7c-26.22-.59-44.9,18.84-45.58,47.42-.54,22.74,21.67,44.56,45.63,44.83,22.87.25,45.38-22.28,46.2-46.26C604.2,539.54,583.75,519.21,557.08,518.61Zm180.7,45c-.18-28.19-17-45-44.72-44.75-26,.24-46.17,20.66-45.82,46.39.3,22.56,24.31,45.91,46.92,45.63C718.79,610.62,738,589.86,737.78,563.66Z" transform="translate(-76.46 0.04)"/><rect class="cls-3" x="341.54" y="249.04" width="448" height="507"/></svg>